<svg xmlns="http://www.w3.org/2000/svg" xmlns:xlink="http://www.w3.org/1999/xlink" width="500" zoomAndPan="magnify" viewBox="0 0 375 374.999991" height="500" preserveAspectRatio="xMidYMid meet" version="1.0"><defs><g/><clipPath id="da3969d752"><path d="M 78.066406 158 L 180 158 L 180 230.8125 L 78.066406 230.8125 Z M 78.066406 158 " clip-rule="nonzero"/></clipPath><clipPath id="e673d893c0"><path d="M 88 163 L 179 163 L 179 230.8125 L 88 230.8125 Z M 88 163 " clip-rule="nonzero"/></clipPath><clipPath id="4e8b3fa1c9"><path d="M 165 144.5625 L 228 144.5625 L 228 167 L 165 167 Z M 165 144.5625 " clip-rule="nonzero"/></clipPath></defs><rect x="-37.5" width="450" fill="#ffffff" y="-37.499999" height="449.999989" fill-opacity="1"/><rect x="-37.5" width="450" fill="#ffffff" y="-37.499999" height="449.999989" fill-opacity="1"/><g clip-path="url(#da3969d752)"><path fill="#2986e2" d="M 88.78125 205.199219 C 86.195312 208.441406 84.140625 214.273438 85.785156 219.078125 C 86.8125 222.074219 89.398438 224.167969 92.804688 225.648438 C 95.597656 227.742188 99.828125 229.507812 105.988281 230.203125 C 86.113281 229.875 79.542969 222.074219 78.886719 216.53125 C 78.066406 209.425781 81.964844 202.570312 88.742188 196.164062 C 102.90625 182.820312 129.761719 171.527344 153.003906 164.585938 C 162.980469 161.589844 172.34375 159.414062 179.695312 158.179688 C 170.125 161.136719 161.378906 164.136719 153.371094 167.175781 C 117.074219 181.011719 96.789062 195.136719 88.78125 205.199219 Z M 88.78125 205.199219 " fill-opacity="1" fill-rule="nonzero"/></g><g clip-path="url(#e673d893c0)"><path fill="#f4743c" d="M 97.035156 208.320312 C 94.777344 211.316406 93.09375 216.695312 94.652344 220.964844 C 96.542969 226.015625 103.480469 228.152344 110.914062 228.890625 C 119.457031 229.21875 126.886719 228.398438 126.886719 228.398438 C 125.082031 228.726562 123.316406 228.972656 121.589844 229.21875 C 115.675781 230 110.503906 230.328125 106.027344 230.246094 C 99.828125 229.546875 95.597656 227.78125 92.847656 225.6875 C 90.015625 223.550781 88.699219 221.046875 88.371094 218.871094 C 87.46875 212.464844 90.792969 206.140625 96.789062 200.148438 C 109.3125 187.664062 133.417969 176.742188 154.316406 169.84375 C 163.308594 166.84375 171.726562 164.628906 178.339844 163.355469 C 169.714844 166.269531 161.871094 169.226562 154.6875 172.183594 C 122.042969 185.609375 104.015625 198.957031 97.035156 208.320312 Z M 97.035156 208.320312 " fill-opacity="1" fill-rule="nonzero"/></g><g clip-path="url(#4e8b3fa1c9)"><path fill="#2986e2" d="M 227.734375 148.65625 C 226.957031 147.957031 225.230469 146.847656 221.78125 146.519531 C 219.566406 146.316406 217.347656 146.5625 215.210938 147.136719 L 200.839844 151.035156 L 175.09375 144.671875 L 167.992188 146.847656 L 187.496094 154.816406 L 176.328125 158.839844 L 170.25 156.828125 L 166.964844 157.648438 L 171.070312 161.015625 C 171.070312 161.015625 163.800781 163.929688 165.238281 166.066406 C 166.964844 168.570312 220.46875 151.777344 227.570312 149.558594 C 227.941406 149.394531 228.066406 148.902344 227.734375 148.65625 Z M 227.734375 148.65625 " fill-opacity="1" fill-rule="nonzero"/></g><g fill="#402978" fill-opacity="1"><g transform="translate(120.824339, 217.803238)"><g><path d="M 19.375 -20.203125 L 11.828125 -20.203125 L 11.828125 0 L 7.8125 0 L 7.8125 -20.203125 L 0.3125 -20.203125 L 0.3125 -23.796875 L 19.375 -23.796875 Z M 19.375 -20.203125 "/></g></g></g><g fill="#402978" fill-opacity="1"><g transform="translate(139.929881, 217.803238)"><g><path d="M 18.21875 0 L 13.875 -7.203125 C 13.644531 -7.179688 13.28125 -7.171875 12.78125 -7.171875 L 7.140625 -7.171875 L 7.140625 0 L 3.125 0 L 3.125 -23.796875 L 12.78125 -23.796875 C 15.820312 -23.796875 18.179688 -23.085938 19.859375 -21.671875 C 21.535156 -20.253906 22.375 -18.253906 22.375 -15.671875 C 22.375 -13.765625 21.945312 -12.15625 21.09375 -10.84375 C 20.25 -9.53125 19.03125 -8.566406 17.4375 -7.953125 L 22.78125 0 Z M 7.140625 -10.78125 L 12.78125 -10.78125 C 16.632812 -10.78125 18.5625 -12.378906 18.5625 -15.578125 C 18.5625 -18.660156 16.632812 -20.203125 12.78125 -20.203125 L 7.140625 -20.203125 Z M 7.140625 -10.78125 "/></g></g></g><g fill="#402978" fill-opacity="1"><g transform="translate(163.930863, 217.803238)"><g><path d="M 18.5 -5.375 L 6.5 -5.375 L 4.21875 0 L 0.03125 0 L 10.546875 -23.796875 L 14.65625 -23.796875 L 25.0625 0 L 20.78125 0 Z M 16.96875 -8.9375 L 12.484375 -19.515625 L 7.984375 -8.9375 Z M 16.96875 -8.9375 "/></g></g></g><g fill="#402978" fill-opacity="1"><g transform="translate(188.441783, 217.803238)"><g><path d="M 13.734375 0 L 9.59375 0 L 0.109375 -23.796875 L 4.421875 -23.796875 L 11.765625 -4.453125 L 19.171875 -23.796875 L 23.359375 -23.796875 Z M 13.734375 0 "/></g></g></g><g fill="#402978" fill-opacity="1"><g transform="translate(211.32089, 217.803238)"><g><path d="M 20.125 -20.203125 L 7.140625 -20.203125 L 7.140625 -13.765625 L 18.765625 -13.765625 L 18.765625 -10.171875 L 7.140625 -10.171875 L 7.140625 -3.609375 L 20.53125 -3.609375 L 20.53125 0 L 3.125 0 L 3.125 -23.796875 L 20.125 -23.796875 Z M 20.125 -20.203125 "/></g></g></g><g fill="#402978" fill-opacity="1"><g transform="translate(233.044133, 217.803238)"><g><path d="M 7.140625 -3.640625 L 17.4375 -3.640625 L 17.4375 0 L 3.125 0 L 3.125 -23.796875 L 7.140625 -23.796875 Z M 7.140625 -3.640625 "/></g></g></g><g fill="#402978" fill-opacity="1"><g transform="translate(250.619853, 217.803238)"><g><path d="M 20.125 -20.203125 L 7.140625 -20.203125 L 7.140625 -13.765625 L 18.765625 -13.765625 L 18.765625 -10.171875 L 7.140625 -10.171875 L 7.140625 -3.609375 L 20.53125 -3.609375 L 20.53125 0 L 3.125 0 L 3.125 -23.796875 L 20.125 -23.796875 Z M 20.125 -20.203125 "/></g></g></g><g fill="#402978" fill-opacity="1"><g transform="translate(272.343096, 217.803238)"><g><path d="M 18.21875 0 L 13.875 -7.203125 C 13.644531 -7.179688 13.28125 -7.171875 12.78125 -7.171875 L 7.140625 -7.171875 L 7.140625 0 L 3.125 0 L 3.125 -23.796875 L 12.78125 -23.796875 C 15.820312 -23.796875 18.179688 -23.085938 19.859375 -21.671875 C 21.535156 -20.253906 22.375 -18.253906 22.375 -15.671875 C 22.375 -13.765625 21.945312 -12.15625 21.09375 -10.84375 C 20.25 -9.53125 19.03125 -8.566406 17.4375 -7.953125 L 22.78125 0 Z M 7.140625 -10.78125 L 12.78125 -10.78125 C 16.632812 -10.78125 18.5625 -12.378906 18.5625 -15.578125 C 18.5625 -18.660156 16.632812 -20.203125 12.78125 -20.203125 L 7.140625 -20.203125 Z M 7.140625 -10.78125 "/></g></g></g><g fill="#402978" fill-opacity="1"><g transform="translate(190.692121, 227.587514)"><g><path d="M 4.140625 -6.78125 L 4.140625 -6.078125 L 2.484375 -6.078125 L 2.484375 0 L 1.734375 0 L 1.734375 -6.078125 L 0.09375 -6.078125 L 0.09375 -6.78125 Z M 4.140625 -6.78125 "/></g></g></g><g fill="#402978" fill-opacity="1"><g transform="translate(194.922154, 227.587514)"><g><path d="M 0.34375 -3.390625 C 0.34375 -4.003906 0.5 -4.582031 0.8125 -5.125 C 1.125 -5.664062 1.550781 -6.097656 2.09375 -6.421875 C 2.644531 -6.742188 3.238281 -6.90625 3.875 -6.90625 C 4.507812 -6.90625 5.097656 -6.75 5.640625 -6.4375 C 6.179688 -6.125 6.613281 -5.691406 6.9375 -5.140625 C 7.257812 -4.597656 7.421875 -4.015625 7.421875 -3.390625 C 7.421875 -2.765625 7.257812 -2.179688 6.9375 -1.640625 C 6.625 -1.097656 6.195312 -0.671875 5.65625 -0.359375 C 5.113281 -0.046875 4.519531 0.109375 3.875 0.109375 C 3.25 0.109375 2.660156 -0.0390625 2.109375 -0.34375 C 1.566406 -0.65625 1.132812 -1.082031 0.8125 -1.625 C 0.5 -2.175781 0.34375 -2.765625 0.34375 -3.390625 Z M 3.875 -6.203125 C 3.363281 -6.203125 2.894531 -6.070312 2.46875 -5.8125 C 2.050781 -5.550781 1.71875 -5.207031 1.46875 -4.78125 C 1.21875 -4.351562 1.09375 -3.890625 1.09375 -3.390625 C 1.09375 -2.890625 1.21875 -2.421875 1.46875 -1.984375 C 1.726562 -1.554688 2.070312 -1.210938 2.5 -0.953125 C 2.925781 -0.703125 3.382812 -0.578125 3.875 -0.578125 C 4.375 -0.578125 4.84375 -0.707031 5.28125 -0.96875 C 5.71875 -1.226562 6.054688 -1.570312 6.296875 -2 C 6.535156 -2.4375 6.65625 -2.898438 6.65625 -3.390625 C 6.65625 -3.898438 6.53125 -4.367188 6.28125 -4.796875 C 6.03125 -5.234375 5.691406 -5.578125 5.265625 -5.828125 C 4.835938 -6.078125 4.375 -6.203125 3.875 -6.203125 Z M 3.875 -6.203125 "/></g></g></g><g fill="#402978" fill-opacity="1"><g transform="translate(202.680207, 227.587514)"><g><path d="M 1.421875 -6.78125 L 1.421875 -2.59375 C 1.421875 -2.03125 1.484375 -1.628906 1.609375 -1.390625 C 1.734375 -1.148438 1.9375 -0.953125 2.21875 -0.796875 C 2.5 -0.648438 2.789062 -0.578125 3.09375 -0.578125 C 3.375 -0.578125 3.632812 -0.640625 3.875 -0.765625 C 4.125 -0.898438 4.304688 -1.039062 4.421875 -1.1875 C 4.546875 -1.34375 4.628906 -1.519531 4.671875 -1.71875 C 4.722656 -1.914062 4.75 -2.21875 4.75 -2.625 L 4.75 -6.78125 L 5.515625 -6.78125 L 5.515625 -2.453125 C 5.515625 -2.015625 5.46875 -1.65625 5.375 -1.375 C 5.28125 -1.101562 5.113281 -0.847656 4.875 -0.609375 C 4.644531 -0.378906 4.375 -0.203125 4.0625 -0.078125 C 3.75 0.046875 3.425781 0.109375 3.09375 0.109375 C 2.664062 0.109375 2.265625 0.0078125 1.890625 -0.1875 C 1.515625 -0.382812 1.21875 -0.648438 1 -0.984375 C 0.78125 -1.328125 0.671875 -1.820312 0.671875 -2.46875 L 0.671875 -6.78125 Z M 1.421875 -6.78125 "/></g></g></g><g fill="#402978" fill-opacity="1"><g transform="translate(208.845253, 227.587514)"><g><path d="M 1.71875 -6.78125 C 3.34375 -6.78125 4.15625 -6.15625 4.15625 -4.90625 C 4.15625 -4.382812 4 -3.953125 3.6875 -3.609375 C 3.382812 -3.273438 2.972656 -3.085938 2.453125 -3.046875 L 4.609375 0 L 3.6875 0 L 1.625 -2.984375 L 1.4375 -2.984375 L 1.4375 0 L 0.6875 0 L 0.6875 -6.78125 Z M 1.4375 -3.640625 L 1.765625 -3.640625 C 2.304688 -3.640625 2.710938 -3.738281 2.984375 -3.9375 C 3.253906 -4.132812 3.390625 -4.441406 3.390625 -4.859375 C 3.390625 -5.304688 3.253906 -5.617188 2.984375 -5.796875 C 2.722656 -5.984375 2.34375 -6.078125 1.84375 -6.078125 L 1.4375 -6.078125 Z M 1.4375 -3.640625 "/></g></g></g><g fill="#402978" fill-opacity="1"><g transform="translate(213.723285, 227.587514)"><g/></g></g><g fill="#402978" fill-opacity="1"><g transform="translate(216.495307, 227.587514)"><g><path d="M 3.15625 -3.875 L 4.578125 -2.046875 L 5.34375 -2.9375 L 5.890625 -2.5 L 5.03125 -1.484375 L 6.1875 0 L 5.234375 0 L 4.5 -0.953125 C 4.082031 -0.578125 3.695312 -0.304688 3.34375 -0.140625 C 3 0.0234375 2.660156 0.109375 2.328125 0.109375 C 1.972656 0.109375 1.644531 0.03125 1.34375 -0.125 C 1.050781 -0.289062 0.8125 -0.515625 0.625 -0.796875 C 0.4375 -1.085938 0.34375 -1.410156 0.34375 -1.765625 C 0.34375 -2.066406 0.40625 -2.335938 0.53125 -2.578125 C 0.65625 -2.816406 0.820312 -3.035156 1.03125 -3.234375 C 1.238281 -3.429688 1.59375 -3.691406 2.09375 -4.015625 C 1.894531 -4.285156 1.734375 -4.53125 1.609375 -4.75 C 1.484375 -4.976562 1.421875 -5.21875 1.421875 -5.46875 C 1.421875 -5.875 1.5625 -6.210938 1.84375 -6.484375 C 2.125 -6.765625 2.476562 -6.90625 2.90625 -6.90625 C 3.3125 -6.90625 3.648438 -6.773438 3.921875 -6.515625 C 4.203125 -6.253906 4.34375 -5.941406 4.34375 -5.578125 C 4.34375 -5.242188 4.242188 -4.945312 4.046875 -4.6875 C 3.859375 -4.4375 3.5625 -4.164062 3.15625 -3.875 Z M 2.71875 -4.421875 L 3.03125 -4.65625 C 3.28125 -4.84375 3.441406 -5.003906 3.515625 -5.140625 C 3.585938 -5.273438 3.625 -5.421875 3.625 -5.578125 C 3.625 -5.773438 3.550781 -5.9375 3.40625 -6.0625 C 3.257812 -6.195312 3.082031 -6.265625 2.875 -6.265625 C 2.675781 -6.265625 2.503906 -6.191406 2.359375 -6.046875 C 2.210938 -5.898438 2.140625 -5.722656 2.140625 -5.515625 C 2.140625 -5.316406 2.222656 -5.109375 2.390625 -4.890625 Z M 4.046875 -1.515625 L 2.53125 -3.46875 C 2.3125 -3.3125 2.09375 -3.15625 1.875 -3 C 1.664062 -2.851562 1.484375 -2.675781 1.328125 -2.46875 C 1.171875 -2.269531 1.09375 -2.046875 1.09375 -1.796875 C 1.09375 -1.472656 1.210938 -1.1875 1.453125 -0.9375 C 1.691406 -0.6875 1.96875 -0.5625 2.28125 -0.5625 C 2.539062 -0.5625 2.804688 -0.632812 3.078125 -0.78125 C 3.347656 -0.9375 3.671875 -1.179688 4.046875 -1.515625 Z M 4.046875 -1.515625 "/></g></g></g><g fill="#402978" fill-opacity="1"><g transform="translate(222.75035, 227.587514)"><g/></g></g><g fill="#402978" fill-opacity="1"><g transform="translate(225.522372, 227.587514)"><g><path d="M 4.140625 -6.78125 L 4.140625 -6.078125 L 2.484375 -6.078125 L 2.484375 0 L 1.734375 0 L 1.734375 -6.078125 L 0.09375 -6.078125 L 0.09375 -6.78125 Z M 4.140625 -6.78125 "/></g></g></g><g fill="#402978" fill-opacity="1"><g transform="translate(229.752406, 227.587514)"><g><path d="M 1.71875 -6.78125 C 3.34375 -6.78125 4.15625 -6.15625 4.15625 -4.90625 C 4.15625 -4.382812 4 -3.953125 3.6875 -3.609375 C 3.382812 -3.273438 2.972656 -3.085938 2.453125 -3.046875 L 4.609375 0 L 3.6875 0 L 1.625 -2.984375 L 1.4375 -2.984375 L 1.4375 0 L 0.6875 0 L 0.6875 -6.78125 Z M 1.4375 -3.640625 L 1.765625 -3.640625 C 2.304688 -3.640625 2.710938 -3.738281 2.984375 -3.9375 C 3.253906 -4.132812 3.390625 -4.441406 3.390625 -4.859375 C 3.390625 -5.304688 3.253906 -5.617188 2.984375 -5.796875 C 2.722656 -5.984375 2.34375 -6.078125 1.84375 -6.078125 L 1.4375 -6.078125 Z M 1.4375 -3.640625 "/></g></g></g><g fill="#402978" fill-opacity="1"><g transform="translate(234.630438, 227.587514)"><g><path d="M 3.1875 -7.109375 L 6.234375 0 L 5.40625 0 L 4.59375 -1.921875 L 1.703125 -1.921875 L 0.875 0 L 0.046875 0 Z M 2 -2.625 L 4.296875 -2.625 L 3.171875 -5.34375 Z M 1.21875 -6.78125 Z M 1.21875 -6.78125 "/></g></g></g><g fill="#402978" fill-opacity="1"><g transform="translate(240.921484, 227.587514)"><g><path d="M 0.875 -6.78125 L 2.8125 -1.609375 L 4.75 -6.78125 L 5.5625 -6.78125 L 2.8125 0.40625 L 0.046875 -6.78125 Z M 0.9375 0 Z M 0.9375 0 "/></g></g></g><g fill="#402978" fill-opacity="1"><g transform="translate(246.537523, 227.587514)"><g><path d="M 4.203125 -6.78125 L 4.203125 -6.078125 L 1.4375 -6.078125 L 1.4375 -4.0625 L 4.125 -4.0625 L 4.125 -3.359375 L 1.4375 -3.359375 L 1.4375 -0.703125 L 4.203125 -0.703125 L 4.203125 0 L 0.6875 0 L 0.6875 -6.78125 Z M 4.203125 -6.78125 "/></g></g></g><g fill="#402978" fill-opacity="1"><g transform="translate(251.34356, 227.587514)"><g><path d="M 1.4375 -6.78125 L 1.4375 -0.703125 L 3.3125 -0.703125 L 3.3125 0 L 0.6875 0 L 0.6875 -6.78125 Z M 1.4375 -6.78125 "/></g></g></g><g fill="#402978" fill-opacity="1"><g transform="translate(254.718583, 227.587514)"><g/></g></g><g fill="#402978" fill-opacity="1"><g transform="translate(257.490605, 227.587514)"><g><path d="M 3.1875 -7.109375 L 6.234375 0 L 5.40625 0 L 4.59375 -1.921875 L 1.703125 -1.921875 L 0.875 0 L 0.046875 0 Z M 2 -2.625 L 4.296875 -2.625 L 3.171875 -5.34375 Z M 1.21875 -6.78125 Z M 1.21875 -6.78125 "/></g></g></g><g fill="#402978" fill-opacity="1"><g transform="translate(263.781651, 227.587514)"><g><path d="M 6.140625 -4.921875 C 5.859375 -5.328125 5.523438 -5.640625 5.140625 -5.859375 C 4.753906 -6.085938 4.3125 -6.203125 3.8125 -6.203125 C 3.320312 -6.203125 2.863281 -6.070312 2.4375 -5.8125 C 2.007812 -5.550781 1.671875 -5.203125 1.421875 -4.765625 C 1.171875 -4.335938 1.046875 -3.867188 1.046875 -3.359375 C 1.046875 -2.859375 1.175781 -2.390625 1.4375 -1.953125 C 1.707031 -1.523438 2.050781 -1.1875 2.46875 -0.9375 C 2.894531 -0.695312 3.328125 -0.578125 3.765625 -0.578125 C 4.171875 -0.578125 4.554688 -0.671875 4.921875 -0.859375 C 5.296875 -1.046875 5.597656 -1.300781 5.828125 -1.625 C 6.066406 -1.945312 6.1875 -2.304688 6.1875 -2.703125 L 4.171875 -2.703125 L 4.171875 -3.40625 L 7 -3.40625 L 7 -3.03125 C 7 -2.582031 6.921875 -2.164062 6.765625 -1.78125 C 6.617188 -1.40625 6.390625 -1.070312 6.078125 -0.78125 C 5.765625 -0.5 5.410156 -0.28125 5.015625 -0.125 C 4.617188 0.03125 4.207031 0.109375 3.78125 0.109375 C 3.164062 0.109375 2.585938 -0.0390625 2.046875 -0.34375 C 1.503906 -0.65625 1.070312 -1.082031 0.75 -1.625 C 0.4375 -2.175781 0.28125 -2.757812 0.28125 -3.375 C 0.28125 -4 0.441406 -4.582031 0.765625 -5.125 C 1.085938 -5.675781 1.519531 -6.109375 2.0625 -6.421875 C 2.613281 -6.742188 3.203125 -6.90625 3.828125 -6.90625 C 4.421875 -6.90625 4.953125 -6.773438 5.421875 -6.515625 C 5.898438 -6.265625 6.328125 -5.90625 6.703125 -5.4375 Z M 6.140625 -4.921875 "/></g></g></g><g fill="#402978" fill-opacity="1"><g transform="translate(271.161705, 227.587514)"><g><path d="M 4.203125 -6.78125 L 4.203125 -6.078125 L 1.4375 -6.078125 L 1.4375 -4.0625 L 4.125 -4.0625 L 4.125 -3.359375 L 1.4375 -3.359375 L 1.4375 -0.703125 L 4.203125 -0.703125 L 4.203125 0 L 0.6875 0 L 0.6875 -6.78125 Z M 4.203125 -6.78125 "/></g></g></g><g fill="#402978" fill-opacity="1"><g transform="translate(275.967742, 227.587514)"><g><path d="M 0.734375 -7.078125 L 6.015625 -1.53125 L 6.015625 -6.78125 L 6.78125 -6.78125 L 6.78125 0.3125 L 1.484375 -5.234375 L 1.484375 0 L 0.734375 0 Z M 0.734375 -7.078125 "/></g></g></g><g fill="#402978" fill-opacity="1"><g transform="translate(283.473796, 227.587514)"><g><path d="M 5.859375 -5.296875 C 5.566406 -5.585938 5.242188 -5.8125 4.890625 -5.96875 C 4.535156 -6.125 4.164062 -6.203125 3.78125 -6.203125 C 3.300781 -6.203125 2.847656 -6.070312 2.421875 -5.8125 C 2.003906 -5.550781 1.671875 -5.203125 1.421875 -4.765625 C 1.171875 -4.335938 1.046875 -3.878906 1.046875 -3.390625 C 1.046875 -2.910156 1.171875 -2.453125 1.421875 -2.015625 C 1.671875 -1.578125 2.007812 -1.226562 2.4375 -0.96875 C 2.863281 -0.707031 3.320312 -0.578125 3.8125 -0.578125 C 4.175781 -0.578125 4.535156 -0.65625 4.890625 -0.8125 C 5.242188 -0.96875 5.566406 -1.191406 5.859375 -1.484375 L 5.859375 -0.546875 C 5.566406 -0.335938 5.242188 -0.175781 4.890625 -0.0625 C 4.546875 0.0507812 4.191406 0.109375 3.828125 0.109375 C 3.234375 0.109375 2.660156 -0.0351562 2.109375 -0.328125 C 1.554688 -0.628906 1.113281 -1.050781 0.78125 -1.59375 C 0.457031 -2.132812 0.296875 -2.722656 0.296875 -3.359375 C 0.296875 -3.992188 0.453125 -4.582031 0.765625 -5.125 C 1.085938 -5.675781 1.519531 -6.109375 2.0625 -6.421875 C 2.613281 -6.742188 3.203125 -6.90625 3.828125 -6.90625 C 4.210938 -6.90625 4.585938 -6.84375 4.953125 -6.71875 C 5.328125 -6.59375 5.628906 -6.429688 5.859375 -6.234375 Z M 5.859375 -5.296875 "/></g></g></g><g fill="#402978" fill-opacity="1"><g transform="translate(289.926844, 227.587514)"><g><path d="M 0.9375 -6.78125 L 2.671875 -3.765625 L 4.40625 -6.78125 L 5.28125 -6.78125 L 3.046875 -2.921875 L 3.046875 0 L 2.296875 0 L 2.296875 -2.921875 L 0.078125 -6.78125 Z M 0.9375 -6.78125 "/></g></g></g></svg>